<svg version="1.0" xmlns="http://www.w3.org/2000/svg" viewBox="0 0 1600.000000 1600.000000"
 preserveAspectRatio="xMidYMid meet">
<g transform="translate(0.000000,1600.000000) scale(0.100000,-0.100000)"
fill="#EE1122" stroke="none">
<path d="M7648 15995 c-2 -2 -62 -6 -133 -9 -72 -4 -141 -8 -155 -10 -14 -3
-62 -7 -107 -11 -45 -3 -90 -7 -100 -9 -10 -2 -49 -7 -88 -11 -78 -7 -86 -8
-235 -30 -243 -36 -477 -82 -725 -141 -11 -3 -31 -7 -45 -10 -155 -32 -675
-196 -925 -292 -291 -111 -691 -295 -920 -422 -74 -40 -130 -72 -192 -107
-164 -91 -530 -327 -688 -442 -111 -82 -250 -186 -255 -191 -3 -3 -36 -30 -75
-60 -70 -55 -254 -210 -310 -261 -16 -15 -59 -54 -95 -86 -152 -136 -504 -497
-641 -658 -19 -22 -42 -49 -53 -60 -35 -38 -291 -361 -336 -424 -25 -35 -55
-75 -66 -90 -68 -84 -383 -573 -450 -696 -6 -11 -41 -76 -78 -144 -107 -196
-230 -445 -306 -621 -18 -41 -40 -93 -50 -115 -177 -402 -398 -1133 -476
-1575 -2 -14 -9 -47 -14 -75 -15 -77 -19 -104 -31 -180 -5 -38 -12 -81 -14
-95 -14 -95 -25 -173 -30 -225 -4 -33 -8 -70 -10 -82 -2 -12 -6 -59 -10 -105
-4 -46 -8 -99 -10 -118 -14 -137 -20 -343 -20 -645 1 -352 5 -468 29 -745 8
-92 30 -282 41 -350 2 -14 6 -43 10 -65 3 -23 7 -52 10 -65 2 -13 7 -46 10
-74 3 -28 8 -58 10 -66 2 -8 7 -31 10 -50 75 -454 248 -1057 446 -1553 119
-299 349 -778 454 -947 12 -19 24 -42 28 -50 4 -8 17 -32 29 -52 13 -21 50
-82 82 -135 119 -198 351 -539 461 -678 123 -156 268 -335 292 -361 16 -17 39
-44 51 -59 75 -96 451 -483 607 -625 199 -181 496 -430 514 -430 5 0 78 102
162 228 84 125 219 326 301 447 81 121 152 227 158 235 38 58 874 1303 1283
1910 120 179 347 516 503 750 277 412 501 746 1068 1588 149 222 287 428 306
458 19 29 133 199 253 376 l217 323 -2115 3 -2115 2 2 657 3 658 2107 0 c1158
0 2110 4 2114 8 12 12 11 1336 -1 1340 -5 2 -953 3 -2105 2 -1152 0 -2101 1
-2107 3 -10 3 -13 144 -13 658 l0 654 4890 0 4890 0 -2 -657 -3 -657 -2112 0
-2113 0 -1 -26 c0 -14 -1 -316 -2 -672 -1 -425 1 -649 8 -651 6 -2 958 -3
2118 -3 l2107 1 0 -657 0 -658 -2115 -2 -2115 -3 150 -220 c83 -121 154 -227
158 -235 4 -9 15 -27 25 -40 10 -14 30 -43 44 -65 15 -22 95 -141 178 -265 83
-124 290 -432 460 -685 170 -253 363 -541 430 -640 67 -99 204 -304 305 -455
102 -151 188 -276 192 -278 4 -2 8 -8 8 -12 0 -7 197 -307 227 -345 4 -5 136
-201 292 -435 157 -234 326 -486 376 -560 50 -74 271 -403 490 -730 219 -327
402 -597 405 -600 4 -3 9 -10 11 -15 4 -11 180 -276 189 -285 3 -3 72 -105
153 -228 82 -122 153 -222 158 -222 5 0 17 6 26 14 328 267 478 401 703 626
396 396 691 751 992 1195 87 129 288 449 288 459 0 2 17 33 38 67 129 212 341
654 471 977 75 188 217 601 265 772 34 118 76 279 81 311 3 18 8 35 10 39 2 3
6 17 9 31 3 13 7 35 10 48 15 68 48 229 52 251 3 14 9 48 14 75 15 77 19 104
31 180 16 110 19 127 24 175 3 25 8 52 10 60 2 8 7 47 11 85 3 39 8 77 9 86 2
9 6 54 10 100 4 46 8 100 10 119 14 135 20 343 20 645 0 352 -5 467 -29 745
-8 92 -30 282 -41 350 -2 14 -6 43 -10 65 -3 23 -7 52 -10 65 -2 13 -7 46 -10
74 -3 28 -8 58 -10 66 -2 8 -7 31 -10 50 -3 19 -22 112 -41 205 -105 513 -266
1026 -472 1510 -87 204 -104 239 -198 429 -88 174 -116 227 -214 401 -95 171
-333 543 -392 615 -15 19 -28 40 -28 46 0 7 -3 14 -8 16 -4 2 -28 32 -54 68
-26 36 -51 70 -56 75 -4 6 -37 48 -72 95 -60 79 -246 309 -259 320 -3 3 -21
23 -40 45 -142 168 -499 532 -681 694 -58 52 -118 106 -135 120 -47 43 -293
242 -365 296 -36 27 -69 53 -75 58 -5 4 -39 29 -75 55 -36 26 -66 50 -68 54
-2 5 -9 8 -16 8 -6 0 -27 13 -46 28 -61 50 -529 352 -545 352 -2 0 -36 19 -77
43 -124 73 -575 307 -592 307 -2 0 -46 20 -97 43 -314 146 -780 314 -1149 413
-92 25 -333 86 -360 91 -14 2 -45 9 -70 14 -25 6 -56 13 -70 15 -14 3 -56 11
-95 19 -113 22 -190 36 -298 51 -15 2 -39 6 -55 9 -22 4 -136 19 -312 40 -63
7 -182 18 -355 31 -66 6 -852 13 -857 9z"/>
<path d="M7976 6605 c-9 -13 -16 -28 -16 -32 0 -3 -8 -16 -19 -27 -10 -12
-179 -262 -376 -556 -197 -294 -446 -665 -553 -825 -506 -752 -639 -951 -917
-1365 -449 -670 -560 -835 -565 -840 -3 -3 -9 -13 -15 -23 -5 -9 -138 -207
-294 -440 -156 -232 -452 -672 -657 -978 l-373 -556 42 -22 c149 -80 412 -208
557 -271 41 -18 93 -40 115 -50 39 -17 64 -27 265 -105 271 -106 859 -282
1070 -321 14 -3 32 -7 40 -9 8 -2 31 -7 50 -10 19 -3 51 -10 70 -15 19 -5 51
-12 70 -15 19 -3 69 -12 110 -20 41 -8 93 -17 115 -20 23 -3 52 -7 65 -10 14
-3 46 -7 71 -10 25 -3 55 -7 66 -9 38 -8 230 -30 358 -41 39 -4 86 -8 105 -11
106 -12 334 -18 640 -19 303 0 441 4 635 20 28 2 84 7 125 10 41 3 86 7 100
10 14 2 46 7 73 10 113 13 147 17 232 30 50 8 110 17 135 20 25 3 52 8 60 10
8 2 31 7 50 10 19 3 58 10 85 15 80 15 103 20 133 25 15 3 45 10 67 15 22 5
72 17 110 26 39 8 79 18 90 20 11 3 31 7 45 10 229 47 889 267 1160 386 25 11
59 26 75 33 151 65 317 144 512 244 l122 62 -32 49 c-18 27 -148 222 -289 432
-141 211 -393 586 -559 833 -166 248 -393 585 -504 750 -111 165 -332 494
-490 730 -159 237 -384 572 -500 745 -116 173 -355 529 -530 790 -175 261
-394 588 -487 725 -92 138 -172 257 -178 265 -5 8 -32 48 -60 88 -27 41 -50
77 -50 82 0 5 -4 10 -8 12 -4 2 -32 40 -62 86 -30 45 -57 82 -61 82 -4 0 -14
-11 -23 -25z"/>
</g>
</svg>
