<?xml version="1.0" encoding="us-ascii" standalone="no"?><svg xmlns="http://www.w3.org/2000/svg" xmlns:xlink="http://www.w3.org/1999/xlink" contentStyleType="text/css" height="163px" preserveAspectRatio="none" style="width:936px;height:163px;background:#FFFFFF;" version="1.1" viewBox="0 0 936 163" width="936px" zoomAndPan="magnify"><defs/><g><g id="cluster_##4"><path d="M233.4592,42.7198 C245.0115,17.1684 268.483,21.1988 280.896,41.8358 C297.4988,15.5207 320.8606,14.5258 335.8023,43.4858 C346.8666,18.6149 367.3849,13.9777 384.2011,37.7644 C394.1125,16.886 415.1811,14.8676 426.6483,36.1999 C441.8131,9.862 461.6545,10.175 476.7987,36.2196 C488.2444,6 516.0896,7.7298 531.9624,31.7142 C544.5913,14.5971 562.6603,15.9045 573.9684,33.321 C591.9219,8.032 607.2293,14.692 623.2195,35.4221 C636.5825,14.591 657.4264,11.0714 671.2942,34.8783 C688.9481,11.1005 709.535,12.6251 721.5979,40.3402 C734.9371,17.7346 751.7886,11.073 770.0016,35.3032 C786.9433,9.4051 804.4453,8.9935 821.0691,35.6123 C841.5093,14.3209 855.4907,19.1957 866.7885,44.5695 C877.8076,15.3969 900.7109,15.2427 918.3023,38.0571 C927.4897,45.0443 926.0266,53.7716 916.8179,59.4844 C927.7341,65.0926 926.6336,71.8266 918.1565,78.7802 C929.6949,84.6784 928.2892,93.3676 918.5643,99.6807 C929.5972,106.5811 927.6475,116.6213 916.1661,120.9877 C900.0375,146.1738 881.6605,143.2106 866.6924,119.8061 C855.6196,142.24 836.2348,146.9612 820.1291,125.0963 C803.1757,146.0897 783.9132,148.3613 770.5503,121.3853 C762.2077,142.2916 741.0497,145.7046 727.2061,127.4784 C711.2661,153.8588 687.0937,144.1281 676.4681,121.928 C664.4447,150.909 645.6345,148.4447 626.9538,128.692 C611.7683,156.5527 587.4502,150.2271 573.0438,127.8559 C556.1405,145.7709 539.263,150.2169 525.8982,124.0698 C516.0987,148.9476 495.9165,147.6885 482.3511,127.7271 C464.4016,152.1324 438.2264,144.9934 426.8342,120.311 C411.0272,141.1255 395.6467,145.8092 379.0407,121.1507 C369.7965,140.7921 348.7112,145.2552 335.0745,126.1326 C315.8934,149.985 297.8413,151.428 282.0572,122.707 C263.8996,143.7783 246.6433,142.9154 232.2792,118.5511 C221.3745,116.4835 217.7697,107.6779 226.1516,99.4298 C215.1255,95.5812 213.8748,86.9365 221.9383,79.1265 C215.5269,71.626 218.0914,63.0779 228.1898,61.3997 C221.2919,53.5941 223.4398,45.7531 233.4592,42.7198 " fill="none" style="stroke:#181818;stroke-width:1.0;"/></g><!--entity SP--><g id="elem_SP"><rect fill="#FF0000" height="46.2969" rx="2.5" ry="2.5" style="stroke:#FFFFFF;stroke-width:0.5;" width="154" x="239" y="54.2375"/><rect fill="#FF0000" height="10" style="stroke:#FFFFFF;stroke-width:0.5;" width="15" x="373" y="59.2375"/><rect fill="#FF0000" height="2" style="stroke:#FFFFFF;stroke-width:0.5;" width="4" x="371" y="61.2375"/><rect fill="#FF0000" height="2" style="stroke:#FFFFFF;stroke-width:0.5;" width="4" x="371" y="65.2375"/><text fill="#FFFFFF" font-family="sans-serif" font-size="14" lengthAdjust="spacing" textLength="114" x="254" y="87.2326">SORA parachain</text></g><!--entity RC--><g id="elem_RC"><rect fill="#FF0000" height="62.5938" rx="2.5" ry="2.5" style="stroke:#FFFFFF;stroke-width:0.5;" width="174" x="481" y="45.7375"/><rect fill="#FF0000" height="10" style="stroke:#FFFFFF;stroke-width:0.5;" width="15" x="635" y="50.7375"/><rect fill="#FF0000" height="2" style="stroke:#FFFFFF;stroke-width:0.5;" width="4" x="633" y="52.7375"/><rect fill="#FF0000" height="2" style="stroke:#FFFFFF;stroke-width:0.5;" width="4" x="633" y="56.7375"/><text fill="#FFFFFF" font-family="sans-serif" font-size="14" lengthAdjust="spacing" textLength="81" x="496" y="78.7326">Relay chain</text><text fill="#FFFFFF" font-family="sans-serif" font-size="14" lengthAdjust="spacing" textLength="134" x="496" y="95.0295">(Polkadot/Kusama)</text></g><!--entity XCM1--><g id="elem_XCM1"><ellipse cx="437" cy="77.2375" fill="#FF0000" rx="8" ry="8" style="stroke:#000000;stroke-width:0.5;"/><text fill="#000000" font-family="sans-serif" font-size="14" lengthAdjust="spacing" textLength="32" x="421" y="107.2326">XCM</text></g><!--entity XCM2--><g id="elem_XCM2"><ellipse cx="699" cy="77.2375" fill="#FF0000" rx="8" ry="8" style="stroke:#000000;stroke-width:0.5;"/><text fill="#000000" font-family="sans-serif" font-size="14" lengthAdjust="spacing" textLength="32" x="683" y="107.2326">XCM</text></g><!--entity OP--><g id="elem_OP"><rect fill="#FF0000" height="46.2969" rx="2.5" ry="2.5" style="stroke:#FFFFFF;stroke-width:0.5;" width="163" x="743.5" y="54.2375"/><rect fill="#FF0000" height="10" style="stroke:#FFFFFF;stroke-width:0.5;" width="15" x="886.5" y="59.2375"/><rect fill="#FF0000" height="2" style="stroke:#FFFFFF;stroke-width:0.5;" width="4" x="884.5" y="61.2375"/><rect fill="#FF0000" height="2" style="stroke:#FFFFFF;stroke-width:0.5;" width="4" x="884.5" y="65.2375"/><text fill="#FFFFFF" font-family="sans-serif" font-size="14" lengthAdjust="spacing" textLength="123" x="758.5" y="87.2326">Other parachains</text></g><!--entity SORA mainnet--><g id="elem_SORA mainnet"><rect fill="#FF0000" height="46.2969" rx="2.5" ry="2.5" style="stroke:#FFFFFF;stroke-width:0.5;" width="144" x="7" y="54.2375"/><rect fill="#FF0000" height="10" style="stroke:#FFFFFF;stroke-width:0.5;" width="15" x="131" y="59.2375"/><rect fill="#FF0000" height="2" style="stroke:#FFFFFF;stroke-width:0.5;" width="4" x="129" y="61.2375"/><rect fill="#FF0000" height="2" style="stroke:#FFFFFF;stroke-width:0.5;" width="4" x="129" y="65.2375"/><text fill="#FFFFFF" font-family="sans-serif" font-size="14" lengthAdjust="spacing" textLength="104" x="22" y="87.2326">SORA mainnet</text></g><!--entity FB--><g id="elem_FB"><ellipse cx="195" cy="77.2375" fill="#FF0000" rx="8" ry="8" style="stroke:#000000;stroke-width:0.5;"/><text fill="#000000" font-family="sans-serif" font-size="14" lengthAdjust="spacing" textLength="74" x="158" y="107.2326">Federated</text><text fill="#000000" font-family="sans-serif" font-size="14" lengthAdjust="spacing" textLength="47" x="158" y="123.5295">bridge</text></g><!--link SORA mainnet to FB--><g id="link_SORA mainnet_FB"><path d="M151.047,77.2375 C162.607,77.2375 174.168,77.2375 185.729,77.2375 " fill="none" id="SORA mainnet-FB" style="stroke:#181818;stroke-width:1.0;"/></g><!--link FB to SP--><g id="link_FB_SP"><path d="M204.453,77.2375 C215.927,77.2375 227.402,77.2375 238.876,77.2375 " fill="none" id="FB-SP" style="stroke:#181818;stroke-width:1.0;"/></g><!--link SP to XCM1--><g id="link_SP_XCM1"><path d="M393.043,77.2375 C404.605,77.2375 416.166,77.2375 427.728,77.2375 " fill="none" id="SP-XCM1" style="stroke:#181818;stroke-width:1.0;"/></g><!--link XCM1 to RC--><g id="link_XCM1_RC"><path d="M446.211,77.2375 C457.787,77.2375 469.364,77.2375 480.94,77.2375 " fill="none" id="XCM1-RC" style="stroke:#181818;stroke-width:1.0;"/></g><!--link RC to XCM2--><g id="link_RC_XCM2"><path d="M655.248,77.2375 C666.756,77.2375 678.263,77.2375 689.771,77.2375 " fill="none" id="RC-XCM2" style="stroke:#181818;stroke-width:1.0;"/></g><!--link XCM2 to OP--><g id="link_XCM2_OP"><path d="M708.352,77.2375 C720.047,77.2375 731.742,77.2375 743.437,77.2375 " fill="none" id="XCM2-OP" style="stroke:#181818;stroke-width:1.0;"/></g><!--SRC=[TO_1QiCm38RlVWhJqtOOOtc39P3B6379fR3seDfQO-9OnNOeO-pT9plGTenUBF5B_lvVSRB-105cgMa-aKUVvBUGigPWC3JaACZpQ1Dc3VHq3BHui-e13Qij-NIxzoD4l42jJnW-GUC_wC4nxGwK4SqbpSVGzQzo1kizfhsu4ZSjCWqIcfq_16kEk94GPLiBeHqjfbYkltCOFJ9YdpS6bGSzElYIHTtv1qLk0aFf-Ms9CCDZMUmRNhmnt3RlnOBhozr9bU5T6Z5SRMF1TIfVzlSU-PG3jpLNZZKeheMU7-uvGT-iMfMrYljE_G80]--></g></svg>